{
  "accessors": [
    {
      "bufferView": 1,
      "componentType": 5126,
      "count": 532,
      "max": [
        7.383334159851074,
        3.5850000381469727,
        30.6250057220459
      ],
      "min": [
        -6.914999008178711,
        -4.585000038146973,
        0.20000000298023224
      ],
      "type": "VEC3"
    },
    {
      "bufferView": 1,
      "byteOffset": 6384,
      "componentType": 5126,
      "count": 532,
      "max": [
        0.008099734783172607,
        1.0,
        0.0
      ],
      "min": [
        -0.004099966026842594,
        -1.0,
        0.0
      ],
      "type": "VEC3"
    },
    {
      "bufferView": 0,
      "componentType": 5125,
      "count": 786,
      "type": "SCALAR"
    },
    {
      "bufferView": 1,
      "byteOffset": 12768,
      "componentType": 5126,
      "count": 8520,
      "max": [
        8.305000305175781,
        3.7799999713897705,
        33.29979705810547
      ],
      "min": [
        -8.305000305175781,
        -4.78000020980835,
        0.0
      ],
      "type": "VEC3"
    },
    {
      "bufferView": 1,
      "byteOffset": 115008,
      "componentType": 5126,
      "count": 8520,
      "max": [
        1.0,
        1.0,
        1.0
      ],
      "min": [
        -1.0,
        -1.0,
        -1.0
      ],
      "type": "VEC3"
    },
    {
      "bufferView": 0,
      "byteOffset": 3144,
      "componentType": 5125,
      "count": 16824,
      "type": "SCALAR"
    },
    {
      "bufferView": 1,
      "byteOffset": 217248,
      "componentType": 5126,
      "count": 1977,
      "max": [
        8.15999984741211,
        3.634999990463257,
        33.10679626464844
      ],
      "min": [
        -8.15999984741211,
        -4.728000164031982,
        -0.0020000000949949026
      ],
      "type": "VEC3"
    },
    {
      "bufferView": 1,
      "byteOffset": 240972,
      "componentType": 5126,
      "count": 1977,
      "max": [
        1.0,
        1.0,
        1.0
      ],
      "min": [
        -1.0,
        -1.0,
        -1.0
      ],
      "type": "VEC3"
    },
    {
      "bufferView": 0,
      "byteOffset": 70440,
      "componentType": 5125,
      "count": 5277,
      "type": "SCALAR"
    }
  ],
  "asset": {
    "extras": {
      "author": "Unknown Canadian (https://sketchfab.com/Unknown_Canadian)",
      "license": "CC-BY-4.0 (http://creativecommons.org/licenses/by/4.0/)",
      "source": "https://sketchfab.com/3d-models/13-story-apartment-low-poly-cities-collection-103069c0267b4d238e54128a724fe979",
      "title": "13 Story Apartment (Low Poly Cities Collection)"
    },
    "generator": "Sketchfab-12.66.0",
    "version": "2.0"
  },
  "bufferViews": [
    {
      "buffer": 0,
      "byteLength": 91548,
      "name": "floatBufferViews",
      "target": 34963
    },
    {
      "buffer": 0,
      "byteLength": 264696,
      "byteOffset": 91548,
      "byteStride": 12,
      "name": "floatBufferViews",
      "target": 34962
    }
  ],
  "buffers": [
    {
      "byteLength": 356244,
      "uri": "scene.bin"
    }
  ],
  "materials": [
    {
      "doubleSided": true,
      "name": "Glass",
      "pbrMetallicRoughness": {
        "baseColorFactor": [
          0.0,
          0.0,
          0.0,
          1.0
        ],
        "metallicFactor": 0.0,
        "roughnessFactor": 0.7261387212474169
      }
    },
    {
      "doubleSided": true,
      "name": "Slabs",
      "pbrMetallicRoughness": {
        "baseColorFactor": [
          0.033103,
          0.033103,
          0.033103,
          1.0
        ],
        "metallicFactor": 0.0
      }
    },
    {
      "doubleSided": true,
      "name": "Walls",
      "pbrMetallicRoughness": {
        "baseColorFactor": [
          0.162642,
          0.162642,
          0.162642,
          1.0
        ],
        "metallicFactor": 0.0
      }
    }
  ],
  "meshes": [
    {
      "name": "Object_0",
      "primitives": [
        {
          "attributes": {
            "NORMAL": 1,
            "POSITION": 0
          },
          "indices": 2,
          "material": 0,
          "mode": 4
        }
      ]
    },
    {
      "name": "Object_1",
      "primitives": [
        {
          "attributes": {
            "NORMAL": 4,
            "POSITION": 3
          },
          "indices": 5,
          "material": 1,
          "mode": 4
        }
      ]
    },
    {
      "name": "Object_2",
      "primitives": [
        {
          "attributes": {
            "NORMAL": 7,
            "POSITION": 6
          },
          "indices": 8,
          "material": 2,
          "mode": 4
        }
      ]
    }
  ],
  "nodes": [
    {
      "children": [
        1
      ],
      "matrix": [
        1.0,
        0.0,
        0.0,
        0.0,
        0.0,
        2.220446049250313e-16,
        -1.0,
        0.0,
        0.0,
        1.0,
        2.220446049250313e-16,
        0.0,
        0.0,
        0.0,
        0.0,
        1.0
      ],
      "name": "Sketchfab_model"
    },
    {
      "children": [
        2,
        3,
        4
      ],
      "name": "13 Story Ap #1.obj.cleaner.materialmerger.gles"
    },
    {
      "mesh": 0,
      "name": "Object_2"
    },
    {
      "mesh": 1,
      "name": "Object_3"
    },
    {
      "mesh": 2,
      "name": "Object_4"
    }
  ],
  "scene": 0,
  "scenes": [
    {
      "name": "Sketchfab_Scene",
      "nodes": [
        0
      ]
    }
  ]
}
